<?xml version="1.0" encoding="iso-8859-1"?>
<!-- Generator: Adobe Illustrator 19.0.0, SVG Export Plug-In . SVG Version: 6.00 Build 0)  -->
<svg version="1.1" id="Capa_1" xmlns="http://www.w3.org/2000/svg" xmlns:xlink="http://www.w3.org/1999/xlink" x="0px" y="0px"
	 viewBox="0 0 480 480" style="enable-background:new 0 0 480 480;" xml:space="preserve">
<path style="fill:#C6C5CA;" d="M48,296L8,424h464l-40-128H48z"/>
<path style="fill:#E0E0E2;" d="M432,24c0-8.837-7.163-16-16-16H64c-8.837,0-16,7.163-16,16v272h384V24z M408,264H72V32h336V264z"/>
<path style="fill:#57565C;" d="M8,456c0,8.837,7.163,16,16,16h432c8.837,0,16-7.163,16-16v-32H8V456z"/>
<path style="fill:#2488FF;" d="M72,32h336v232H72V32z"/>
<g>
	<path style="fill:#231F20;" d="M479.696,422.48c-0.005-0.289-0.026-0.577-0.064-0.864L440,294.792V24c0-13.255-10.745-24-24-24H64
		C50.745,0,40,10.745,40,24v270.792L0.368,421.6c-0.038,0.287-0.059,0.575-0.064,0.864C0.152,422.965,0.05,423.479,0,424v32
		c0,13.255,10.745,24,24,24h432c13.255,0,24-10.745,24-24v-32C479.949,423.485,479.847,422.975,479.696,422.48L479.696,422.48z
		 M56,24c0-4.418,3.582-8,8-8h352c4.418,0,8,3.582,8,8v264H56V24z M53.88,304h372.24l35,112H18.88L53.88,304z M464,456
		c0,4.418-3.582,8-8,8H24c-4.418,0-8-3.582-8-8v-24h448V456z"/>
	<path style="fill:#231F20;" d="M64,272h352V24H64V272z M80,40h320v216H80V40z"/>
	<path style="fill:#231F20;" d="M80,320h32v16H80V320z"/>
	<path style="fill:#231F20;" d="M128,320h32v16h-32V320z"/>
	<path style="fill:#231F20;" d="M176,320h32v16h-32V320z"/>
	<path style="fill:#231F20;" d="M224,320h32v16h-32V320z"/>
	<path style="fill:#231F20;" d="M272,320h32v16h-32V320z"/>
	<path style="fill:#231F20;" d="M320,320h32v16h-32V320z"/>
	<path style="fill:#231F20;" d="M368,320h32v16h-32V320z"/>
	<path style="fill:#231F20;" d="M80,352h32v16H80V352z"/>
	<path style="fill:#231F20;" d="M128,352h32v16h-32V352z"/>
	<path style="fill:#231F20;" d="M176,352h32v16h-32V352z"/>
	<path style="fill:#231F20;" d="M224,352h32v16h-32V352z"/>
	<path style="fill:#231F20;" d="M272,352h32v16h-32V352z"/>
	<path style="fill:#231F20;" d="M320,352h32v16h-32V352z"/>
	<path style="fill:#231F20;" d="M368,352h32v16h-32V352z"/>
	<path style="fill:#231F20;" d="M176,384h128v16H176V384z"/>
	<path style="fill:#231F20;" d="M320,384h32v16h-32V384z"/>
	<path style="fill:#231F20;" d="M128,384h32v16h-32V384z"/>
</g>
<g>
</g>
<g>
</g>
<g>
</g>
<g>
</g>
<g>
</g>
<g>
</g>
<g>
</g>
<g>
</g>
<g>
</g>
<g>
</g>
<g>
</g>
<g>
</g>
<g>
</g>
<g>
</g>
<g>
</g>
</svg>
